HIERARCHY
ROOT root
{
	OFFSET	0	13.1	24.9
	CHANNELS 6  Xposition Yposition Zposition Xrotation Yrotation Zrotation
	JOINT spine_1
	{
		OFFSET	0	9.99999	0
		CHANNELS 3  Xrotation Yrotation Zrotation
		JOINT spine_2
		{
			OFFSET	0	112	-10
			CHANNELS 3  Xrotation Yrotation Zrotation
			JOINT spine_3
			{
				OFFSET	0	206.5	19.3
				CHANNELS 3  Xrotation Yrotation Zrotation
				JOINT spine_4
				{
					OFFSET	0	110.4	14.6
					CHANNELS 3  Xrotation Yrotation Zrotation
					JOINT neck_1
					{
						OFFSET	0	71.8	-50.3
						CHANNELS 3  Xrotation Yrotation Zrotation
						JOINT neck_2
						{
							OFFSET	0	86.2	-25.8
							CHANNELS 3  Xrotation Yrotation Zrotation
							JOINT head_ee
							{
								OFFSET	0	179.8	-8.7
								CHANNELS 3  Xrotation Yrotation Zrotation
								End Site
								{
									OFFSET	1	0	0
								}
							}
						}
					}
					JOINT left_clavicle
					{
						OFFSET	-43.2	22.4	-70.8
						CHANNELS 3  Xrotation Yrotation Zrotation
						JOINT left_shoulder
						{
							OFFSET	-93.9	-5.79999	48.7
							CHANNELS 3  Xrotation Yrotation Zrotation
							JOINT left_elbow
							{
								OFFSET	-291.4	-30.8	15.2
								CHANNELS 3  Xrotation Yrotation Zrotation
								JOINT left_lowarm_twist
								{
									OFFSET	-110.7	-3.89999	13.6
									CHANNELS 3  Xrotation Yrotation Zrotation
									JOINT left_hand
									{
										OFFSET	-110.7	-3.89999	13.6
										CHANNELS 3  Xrotation Yrotation Zrotation
										JOINT left_ee
										{
											OFFSET	-80.8	-5.10001	12.1
											CHANNELS 3  Xrotation Yrotation Zrotation
											End Site
											{
												OFFSET	1	0	0
											}
										}
									}
								}
							}
						}
					}
					JOINT right_clavicle
					{
						OFFSET	43.2	22.4	-70.8
						CHANNELS 3  Xrotation Yrotation Zrotation
						JOINT right_shoulder
						{
							OFFSET	93.9	-5.79999	48.7
							CHANNELS 3  Xrotation Yrotation Zrotation
							JOINT right_elbow
							{
								OFFSET	291.4	-30.8	15.2
								CHANNELS 3  Xrotation Yrotation Zrotation
								JOINT right_lowarm_twist
								{
									OFFSET	110.7	-3.89999	13.6
									CHANNELS 3  Xrotation Yrotation Zrotation
									JOINT right_hand
									{
										OFFSET	110.7	-3.89999	13.6
										CHANNELS 3  Xrotation Yrotation Zrotation
										JOINT right_ee
										{
											OFFSET	80.8	-5.10001	12.1
											CHANNELS 3  Xrotation Yrotation Zrotation
											End Site
											{
												OFFSET	1	0	0
											}
										}
									}
								}
							}
						}
					}
				}
			}
		}
	}
	JOINT left_hip
	{
		OFFSET	-82.8	-127.5	0.300001
		CHANNELS 3  Xrotation Yrotation Zrotation
		JOINT left_knee
		{
			OFFSET	-28.2	-396.7	2.2
			CHANNELS 3  Xrotation Yrotation Zrotation
			JOINT left_ankle
			{
				OFFSET	-11.7	-411.3	35.4
				CHANNELS 3  Xrotation Yrotation Zrotation
				JOINT left_toes
				{
					OFFSET	0	-60	-88.6
					CHANNELS 3  Xrotation Yrotation Zrotation
					JOINT left_foot_ee
					{
						OFFSET	-22.5	-16.5	-42.2
						CHANNELS 3  Xrotation Yrotation Zrotation
						End Site
						{
							OFFSET	1	0	0
						}
					}
				}
			}
		}
	}
	JOINT right_hip
	{
		OFFSET	82.8	-127.5	0.300001
		CHANNELS 3  Xrotation Yrotation Zrotation
		JOINT right_knee
		{
			OFFSET	28.2	-396.7	2.2
			CHANNELS 3  Xrotation Yrotation Zrotation
			JOINT right_ankle
			{
				OFFSET	11.7	-411.3	35.4
				CHANNELS 3  Xrotation Yrotation Zrotation
				JOINT right_toes
				{
					OFFSET	0	-60	-88.6
					CHANNELS 3  Xrotation Yrotation Zrotation
					JOINT right_foot_ee
					{
						OFFSET	22.5	-16.5	-42.2
						CHANNELS 3  Xrotation Yrotation Zrotation
						End Site
						{
							OFFSET	1	0	0
						}
					}
				}
			}
		}
	}
}
MOTION
Frames: 5
Frame Time: 0.02
2378.86 681.236 -1538.61 44.9209 74.8468 -45.4996 -2.34439 0.741691 1.03086 -2.34405 0.674595 1.07597 -2.3304 0.384595 1.2103 -2.33199 0.570902 1.13439 0.0255234 14.8967 3.1446 0.441258 24.0455 4.87316 -0.0 0.0 -0.0 -3.35534 24.0134 -1.76931 -9.73459 -3.39333 81.4978 0.816048 -22.0107 0.158705 -37.6757 -2.70743 3.88878 -3.29051 20.2871 -11.4081 -0.0 0.0 -0.0 14.1278 27.1393 -28.1558 -3.58086 28.0518 -63.563 0.189831 5.37225 -0.00890617 -62.175 5.55441 -5.16373 -12.1953 -33.5512 65.9881 0.0 0.0 0.0 -11.4795 4.54855 -3.80238 -39.7257 -0.449407 5.95985 36.3878 -12.3097 -4.75503 -39.6201 0.0 0.0 -0.0 0.0 -0.0 -6.04865 31.6654 -6.62037 -12.477 -0.309411 -1.886 38.4977 -14.1733 4.78408 -26.1054 0.0 0.0 0.0 0.0 0.0 
2370.28 681.94 -1540.72 46.5442 75.3364 -46.8807 -2.3185 0.779974 0.919276 -2.31832 0.719901 0.967042 -2.30537 0.456153 1.11594 -2.30656 0.626661 1.02991 -1.26765 14.7145 4.05096 -0.93819 23.2735 6.02534 -0.0 0.0 -0.0 -3.39891 24.4609 -1.73429 -9.69763 -0.780158 80.7328 0.746673 -20.2984 0.133666 -37.4499 -2.68414 3.87156 -3.22382 20.7773 -10.7254 -0.0 0.0 -0.0 14.1172 26.6522 -28.1951 -1.66498 29.0742 -61.7005 0.219814 6.21456 -0.0119327 -62.724 5.62333 -5.17787 -12.1652 -33.3275 66.3374 0.0 0.0 0.0 -6.67371 4.17741 -4.06896 -39.6223 -0.442913 5.94535 36.7589 -8.34415 -4.69884 -39.998 0.0 0.0 -0.0 0.0 -0.0 -6.97954 31.1204 -7.20779 -11.0099 -0.29445 -1.66141 41.2232 -15.3585 5.04657 -26.4489 0.0 0.0 0.0 0.0 0.0 
2358.85 682.506 -1538.11 52.0471 75.6603 -52.4283 -2.51249 0.754483 0.858301 -2.51235 0.698341 0.904568 -2.5006 0.447255 1.0516 -2.50163 0.607716 0.96778 -2.68297 14.1985 4.47715 -2.43862 22.3107 6.62613 -0.0 0.0 -0.0 -3.52901 24.3489 -1.93373 -9.77316 1.11837 81.2052 0.72579 -19.7753 0.126511 -37.1059 -2.64876 3.84515 -3.24024 21.1388 -10.618 -0.0 0.0 -0.0 14.1845 27.3591 -28.2588 -0.0947524 29.8178 -60.4288 0.235364 6.65038 -0.0136748 -62.9659 5.65374 -5.1839 -12.1554 -33.2712 66.385 0.0 0.0 0.0 -2.30782 4.1815 -4.02798 -38.8171 -0.393233 5.83198 37.1061 -8.28726 -4.73013 -39.8867 0.0 0.0 -0.0 0.0 -0.0 -8.31238 30.4042 -7.0709 -10.3081 -0.28526 -1.55411 41.576 -16.2649 5.09281 -26.3796 0.0 0.0 0.0 0.0 0.0 
2351.43 676.675 -1539.75 58.2084 76.5729 -58.45 -2.59934 0.642377 0.866143 -2.59912 0.585963 0.905261 -2.58912 0.336743 1.02442 -2.59025 0.494298 0.958391 -4.80289 13.7575 4.56022 -4.66028 21.8839 6.97635 -0.0 0.0 -0.0 -3.40969 24.0761 -1.83007 -10.2454 2.53066 80.5981 0.683405 -18.703 0.112544 -36.713 -2.60857 3.81473 -3.08549 21.108 -9.70951 -0.0 0.0 -0.0 14.3346 26.1484 -28.77 1.91782 30.8335 -58.4799 0.255822 7.22258 -0.0161456 -61.1432 5.42526 -5.13535 -12.124 -33.3639 65.4661 0.0 0.0 0.0 1.14091 3.94398 -4.27699 -36.4152 -0.254597 5.4899 39.5849 -3.57777 -4.876 -38.9694 0.0 0.0 -0.0 0.0 -0.0 -8.9437 28.9462 -7.58822 -10.0257 -0.281192 -1.51097 41.7603 -15.3967 5.0938 -26.1303 0.0 0.0 0.0 0.0 0.0 
2344.43 674.55 -1538.52 64.3982 77.7895 -64.7209 -2.65647 0.538163 0.967279 -2.65608 0.475525 0.999559 -2.64691 0.204857 1.08778 -2.64836 0.374071 1.04178 -5.98771 13.1497 4.28573 -5.9082 21.1931 6.78298 -0.0 0.0 -0.0 -3.28369 23.9342 -1.68822 -10.2179 3.71315 79.8567 0.648682 -17.8143 0.101665 -36.3967 -2.57636 3.79004 -3.0731 21.4444 -9.44758 -0.0 0.0 -0.0 14.3836 25.6405 -28.9489 3.5615 31.8323 -57.0018 0.278783 7.86305 -0.0191597 -61.7697 5.50362 -5.15286 -12.0448 -32.93 65.7432 0.0 0.0 0.0 3.20418 4.31269 -4.96353 -34.826 -0.170825 5.26057 39.6107 -2.86282 -4.8695 -39.157 0.0 0.0 -0.0 0.0 -0.0 -8.94075 28.0959 -7.79189 -10.1799 -0.28344 -1.53452 41.9851 -15.0439 5.10733 -26.1629 0.0 0.0 0.0 0.0 0.0 
